<?xml version="1.0" standalone="no"?>
<!DOCTYPE svg PUBLIC "-//W3C//DTD SVG 20010904//EN"
 "http://www.w3.org/TR/2001/REC-SVG-20010904/DTD/svg10.dtd">
<svg version="1.0" xmlns="http://www.w3.org/2000/svg"
 width="475.000000pt" height="125.000000pt" viewBox="0 0 475.000000 125.000000"
 preserveAspectRatio="xMidYMid meet">
<metadata>
Created by potrace 1.14, written by Peter Selinger 2001-2017
</metadata>
<g transform="translate(0.000000,125.000000) scale(0.100000,-0.100000)"
fill="#000000" stroke="none">
<path d="M122 1108 c-8 -8 -12 -47 -12 -120 l0 -107 88 -3 87 -3 -35 -16 c-53
-24 -101 -69 -121 -114 -16 -35 -19 -69 -19 -297 l0 -258 95 0 95 0 -2 463 -3
462 -80 3 c-54 2 -84 -1 -93 -10z" fill="#fff"/>
<path d="M1270 1098 c-87 -45 -85 -35 -88 -409 -3 -357 0 -388 48 -442 38 -44
86 -57 205 -57 l98 0 32 34 c18 19 37 48 43 64 l10 29 -106 6 c-59 3 -115 8
-124 12 -31 12 -39 72 -36 245 l3 165 93 3 92 3 0 64 0 65 -95 0 -95 0 0 120
c0 137 -1 138 -80 98z" fill="#fff"/>
<path d="M2585 1108 c-46 -17 -81 -45 -94 -76 -8 -20 -11 -129 -9 -384 3 -405
1 -391 88 -436 37 -18 60 -22 143 -22 116 0 148 13 177 70 11 21 20 43 20 48
0 5 -50 12 -110 14 -87 5 -115 9 -130 23 -19 17 -20 33 -20 397 0 420 5 391
-65 366z" fill="#fff"/>
<path d="M440 535 l0 -345 100 0 100 0 0 265 0 265 76 0 c139 0 144 -11 144
-310 l0 -220 90 0 90 0 0 265 c0 307 -4 322 -86 375 -66 41 -122 50 -329 50
l-185 0 0 -345z" fill="#fff"/>
<path d="M1828 870 c-45 -13 -87 -49 -111 -93 -20 -38 -22 -59 -25 -227 -4
-195 2 -240 41 -294 40 -57 80 -66 303 -66 192 0 203 1 229 22 28 22 68 96 59
110 -3 4 -95 8 -204 8 -192 0 -200 1 -225 23 -15 13 -28 37 -32 60 l-6 37 169
0 c93 0 186 5 206 10 40 12 92 50 109 82 20 37 29 133 19 189 -13 68 -34 98
-90 127 -41 21 -56 22 -230 21 -102 0 -197 -4 -212 -9z m341 -144 c32 -29 24
-104 -13 -128 -6 -4 -76 -8 -155 -8 l-144 0 7 47 c13 94 46 113 192 110 74 -2
96 -6 113 -21z" fill="#fff"/>
<path d="M3128 870 c-51 -15 -94 -49 -118 -92 -24 -42 -25 -48 -25 -248 0
-200 1 -206 25 -249 44 -78 67 -86 280 -89 137 -2 191 1 210 10 24 13 70 81
70 105 0 8 -51 12 -181 15 l-181 3 -29 33 c-29 32 -29 33 -29 165 0 106 4 139
18 167 26 52 50 60 197 60 142 1 149 3 184 60 43 71 46 70 -186 69 -115 0
-220 -4 -235 -9z" fill="#fff"/>
<path d="M3690 535 l0 -346 83 3 82 3 3 343 2 342 -85 0 -85 0 0 -345z" fill="#fff"/>
<path d="M4122 864 c-22 -15 -44 -50 -56 -91 l-7 -23 158 0 c217 0 257 -14
270 -94 l6 -36 -169 0 c-188 0 -229 -8 -278 -50 -40 -36 -57 -90 -57 -181 0
-84 27 -142 81 -173 32 -19 51 -21 246 -21 l210 0 43 28 c29 20 50 44 67 80
22 49 24 63 24 233 0 186 -6 224 -43 278 -39 56 -81 66 -287 66 -152 0 -190
-3 -208 -16z m368 -414 c0 -42 -24 -96 -48 -109 -12 -6 -72 -11 -136 -11 -107
0 -116 1 -130 22 -25 36 -16 98 18 120 6 4 75 8 154 8 l142 0 0 -30z" fill="#fff"/>
</g>
</svg>
